PathFileType	4	(X/Y/Z)	SUBJ82_3_walk_RCNL2025.trc
DataRate	CameraRate	NumFrames	NumMarkers	Units	OrigDataRate	OrigDataStartFrame	OrigNumFrames
100	100	6	25	mm	100	29	225
Frame#	Time	R_Shoulder			L_Shoulder			C7			J_Notch			R_Elbow			L_Elbow			R_Wrist			L_Wrist			R_Asis			L_Asis			Sacral			Thoracic			Sternum			R_Thigh_Lateral			R_Knee_Lateral			R_Shank_Lateral			R_Ankle_Lateral			R_Heel			R_Toe			L_Thigh_Lateral			L_Knee_Lateral			L_Shank_Lateral			L_Ankle_Lateral			L_Heel			L_Toe		
		X1	Y1	Z1	X2	Y2	Z2	X3	Y3	Z3	X4	Y4	Z4	X5	Y5	Z5	X6	Y6	Z6	X7	Y7	Z7	X8	Y8	Z8	X9	Y9	Z9	X10	Y10	Z10	X11	Y11	Z11	X12	Y12	Z12	X13	Y13	Z13	X14	Y14	Z14	X15	Y15	Z15	X16	Y16	Z16	X17	Y17	Z17	X18	Y18	Z18	X19	Y19	Z19	X20	Y20	Z20	X21	Y21	Z21	X22	Y22	Z22	X23	Y23	Z23	X24	Y24	Z24	X25	Y25	Z25
29	0.28000000	-1617.543213	1368.496216	448.239777	-1565.841675	1403.040405	44.452110	-1642.807129	1479.615601	249.414642	-1524.501221	1357.780273	251.692520	-1737.253174	1040.108398	483.275085	-1569.520752	1064.833740	-68.781097	-1695.409973	783.308624	455.122940	-1375.357056	890.325958	-56.052610	-1542.575073	946.595581	370.083954	-1545.507324	962.980896	101.464172	-1725.936401	970.080811	238.957642	-1742.645874	1248.183228	222.862595	-1503.277954	1180.283569	243.736893	-1490.593994	526.719055	411.645691	-1446.125732	457.379395	362.668427	-1372.394043	244.099121	422.321198	-1270.097778	82.707207	335.672699	-1288.627197	38.779377	285.822083	-1128.770386	116.741058	324.442169	-1751.761719	548.796448	60.351494	-1769.655151	475.123169	106.243019	-1850.609497	254.703064	72.522499	-1924.121216	79.050812	143.975159	-1971.010010	69.205315	194.882126	-1791.932373	36.846214	168.516052
30	0.29000000	-1602.532715	1365.346436	449.349121	-1550.192993	1400.140381	45.632267	-1627.777466	1476.517090	250.526123	-1509.159424	1354.696045	252.868576	-1721.820801	1036.747803	484.239410	-1553.268188	1062.041382	-67.710350	-1679.468018	779.986084	455.953751	-1357.537231	889.388031	-54.932573	-1526.500366	943.966248	370.584503	-1529.954590	960.162476	101.881645	-1710.094482	967.022278	240.560333	-1727.358765	1245.244019	223.726242	-1487.835693	1177.304810	244.734207	-1471.607178	525.123962	411.865448	-1426.910889	455.994080	362.668732	-1351.913452	243.110611	421.922791	-1250.093262	82.147758	334.704590	-1269.057007	38.275608	285.062073	-1108.931030	116.290405	321.752197	-1740.490112	547.962524	60.461132	-1758.672363	474.273590	106.187981	-1844.892944	255.782913	72.446609	-1922.691528	81.959076	143.636398	-1969.779297	73.274254	194.528870	-1791.564453	36.770481	168.622559
31	0.30000000	-1587.343140	1362.453735	450.568634	-1534.435425	1397.502686	46.911461	-1612.608887	1473.707031	251.770538	-1493.658447	1351.934570	254.173340	-1706.020874	1033.597290	485.376221	-1537.356934	1059.470459	-66.478035	-1663.128540	776.882111	457.016617	-1340.419250	888.256927	-53.726507	-1510.212280	941.767639	371.181915	-1514.059082	957.505066	102.376007	-1693.990967	964.244873	242.121750	-1711.823242	1242.519653	224.621078	-1472.145630	1174.659058	245.879181	-1451.292603	524.478577	412.340851	-1407.250732	455.094879	362.847076	-1332.947266	241.991425	421.256500	-1233.080322	80.945061	333.347229	-1252.909058	37.493587	283.865723	-1092.045410	113.866356	318.996887	-1728.668457	547.237488	60.518776	-1747.074097	473.512909	106.021019	-1838.666504	257.166840	72.166573	-1920.890137	85.354698	143.077209	-1968.153687	78.033798	193.935501	-1791.135376	36.650402	168.731003
32	0.31000000	-1571.978394	1359.863037	451.895447	-1518.578247	1395.176025	48.283073	-1597.298340	1471.240234	253.148178	-1477.997925	1349.556274	255.601501	-1689.852173	1030.703369	486.672546	-1521.795532	1057.167358	-65.088608	-1646.391479	774.041870	458.310730	-1324.029175	886.941803	-52.436825	-1493.717651	940.045654	371.892609	-1497.807007	955.046204	102.978493	-1677.632080	961.814453	243.615921	-1696.038818	1240.065308	225.547821	-1456.193237	1172.407349	247.172562	-1429.996338	524.679688	413.019623	-1387.316650	454.660522	363.185364	-1315.438721	240.800568	420.359650	-1218.785889	79.215126	331.712402	-1239.889038	36.552204	282.349884	-1077.833496	109.642906	316.279236	-1716.162720	546.593933	60.524040	-1734.743042	472.833771	105.738930	-1831.810791	258.874420	71.681984	-1918.596191	89.292877	142.297897	-1965.990356	83.566895	193.104218	-1790.640625	36.485374	168.854538
33	0.32000000	-1556.444702	1357.620972	453.323608	-1502.629517	1393.208496	49.737282	-1581.844604	1469.170898	254.654633	-1462.183472	1347.619507	257.143799	-1673.317871	1028.115479	488.109283	-1506.585083	1055.178223	-63.544838	-1629.261169	771.511871	459.831100	-1308.389893	885.455505	-51.066458	-1477.043701	938.838440	372.729279	-1481.204102	952.829956	103.718521	-1661.042847	959.794739	245.019119	-1680.016846	1237.940918	226.504654	-1439.977051	1170.608398	248.609436	-1408.138062	525.590759	413.850281	-1367.295288	454.670441	363.671875	-1299.263794	239.650970	419.312897	-1206.886475	77.140961	329.931915	-1229.635254	35.609604	280.662720	-1065.979980	103.924034	313.689423	-1702.813843	545.989563	60.482090	-1721.535645	472.216370	105.345718	-1824.185181	260.920990	71.006157	-1915.665771	93.835739	141.310242	-1963.117065	89.954445	192.054031	-1790.067505	36.290855	169.006638
34	0.33000000	-1540.750244	1355.776855	454.842926	-1486.594971	1391.646973	51.261265	-1566.248535	1467.551270	256.279327	-1446.226807	1346.177734	258.786469	-1656.424194	1025.885376	489.662445	-1491.720459	1053.549438	-61.847980	-1611.746521	769.340759	461.569107	-1293.521851	883.815460	-49.618845	-1460.240112	938.176208	373.702057	-1464.279785	950.905090	104.621414	-1644.267700	958.242249	246.308762	-1663.780640	1236.209106	227.486023	-1423.513062	1169.315308	250.178543	-1386.157104	527.066528	414.792267	-1347.373169	455.107086	364.303223	-1284.250854	238.684784	418.232025	-1197.044800	74.938507	328.141876	-1221.753296	34.826756	278.965515	-1056.166992	97.109970	311.298401	-1688.445190	545.370056	60.401234	-1707.288696	471.628479	104.850609	-1815.626831	263.316071	70.163727	-1911.935059	99.049362	140.135117	-1959.338501	97.268654	190.817093	-1789.387939	36.106548	169.195267
